<?xml version="1.0" encoding="utf-8"?>
<!-- Generator: Adobe Illustrator 20.1.0, SVG Export Plug-In . SVG Version: 6.00 Build 0)  -->
<svg version="1.1" id="Layer_1" xmlns="http://www.w3.org/2000/svg" xmlns:xlink="http://www.w3.org/1999/xlink" x="0px" y="0px"
	 viewBox="0 0 512 512" style="enable-background:new 0 0 512 512;" xml:space="preserve">
<style type="text/css">
	.st0{fill:#C6CBCB;}
	.st1{fill:#D672AD;}
	.st2{fill:#D1D5D5;}
	.st3{fill:#E2E5E7;}
	.st4{fill:#EA8EBC;}
</style>
<g>
	<g>
		<polygon class="st0" points="0,28.9 331.2,448.4 360.6,348.5 		"/>
		<polygon class="st1" points="231.5,234.1 208.7,293.3 331.2,448.4 360.6,348.5 		"/>
		<polygon class="st2" points="331.2,448.4 300.7,373.7 0,28.9 267,395.8 		"/>
		<polygon class="st3" points="300.7,373.7 128.3,483.1 0,28.9 		"/>
		<polygon class="st3" points="360.6,348.5 0,28.9 512,282.3 		"/>
		<polygon class="st4" points="182.6,238.4 123.8,467.1 128.3,483.1 300.8,373.6 		"/>
		<polygon class="st4" points="490.9,271.9 231.5,234.1 360.5,348.9 512,282.3 		"/>
		<polygon class="st1" points="182.6,238.4 123.8,467.1 191.3,248.3 		"/>
		<polygon class="st1" points="231.5,234.1 243,244.3 490.9,271.9 		"/>
		<polygon class="st0" points="300.8,373.6 266.7,395.3 292.8,417 		"/>
	</g>
	<polygon class="st4" points="12.7,73.9 23,55.3 0,28.9 	"/>
	<polygon class="st4" points="27.9,53.6 51.1,54.2 0,28.9 	"/>
</g>
</svg>
